<mxfile host="app.diagrams.net" agent="Mozilla/5.0 (Windows NT 10.0; Win64; x64) AppleWebKit/537.36 (KHTML, like Gecko) Chrome/134.0.0.0 Safari/537.36" version="26.2.5">
  <diagram name="PÃ¡gina-1" id="5L_Ks9ffTYElXWCnBmuN">
    <mxGraphModel dx="943" dy="920" grid="0" gridSize="10" guides="1" tooltips="1" connect="1" arrows="1" fold="1" page="0" pageScale="1" pageWidth="827" pageHeight="1169" math="0" shadow="0">
      <root>
        <mxCell id="0" />
        <mxCell id="1" parent="0" />
        <mxCell id="J3RViSZRy1qu6EPypgzf-1" value="Termo" style="swimlane;fontStyle=1;align=center;verticalAlign=top;childLayout=stackLayout;horizontal=1;startSize=26;horizontalStack=0;resizeParent=1;resizeParentMax=0;resizeLast=0;collapsible=1;marginBottom=0;whiteSpace=wrap;html=1;" vertex="1" parent="1">
          <mxGeometry x="-47" y="-19" width="160" height="115" as="geometry" />
        </mxCell>
        <mxCell id="J3RViSZRy1qu6EPypgzf-3" value="" style="line;strokeWidth=1;fillColor=none;align=left;verticalAlign=middle;spacingTop=-1;spacingLeft=3;spacingRight=3;rotatable=0;labelPosition=right;points=[];portConstraint=eastwest;strokeColor=inherit;" vertex="1" parent="J3RViSZRy1qu6EPypgzf-1">
          <mxGeometry y="26" width="160" height="8" as="geometry" />
        </mxCell>
        <mxCell id="J3RViSZRy1qu6EPypgzf-2" value="- coeficiente : double&lt;div&gt;- grau : int&lt;/div&gt;" style="text;strokeColor=none;fillColor=none;align=left;verticalAlign=top;spacingLeft=4;spacingRight=4;overflow=hidden;rotatable=0;points=[[0,0.5],[1,0.5]];portConstraint=eastwest;whiteSpace=wrap;html=1;" vertex="1" parent="J3RViSZRy1qu6EPypgzf-1">
          <mxGeometry y="34" width="160" height="36" as="geometry" />
        </mxCell>
        <mxCell id="J3RViSZRy1qu6EPypgzf-10" value="" style="line;strokeWidth=1;fillColor=none;align=left;verticalAlign=middle;spacingTop=-1;spacingLeft=3;spacingRight=3;rotatable=0;labelPosition=right;points=[];portConstraint=eastwest;strokeColor=inherit;" vertex="1" parent="J3RViSZRy1qu6EPypgzf-1">
          <mxGeometry y="70" width="160" height="8" as="geometry" />
        </mxCell>
        <mxCell id="J3RViSZRy1qu6EPypgzf-4" value="&lt;div&gt;+ termoToString() : void&lt;/div&gt;" style="text;strokeColor=none;fillColor=none;align=left;verticalAlign=top;spacingLeft=4;spacingRight=4;overflow=hidden;rotatable=0;points=[[0,0.5],[1,0.5]];portConstraint=eastwest;whiteSpace=wrap;html=1;" vertex="1" parent="J3RViSZRy1qu6EPypgzf-1">
          <mxGeometry y="78" width="160" height="37" as="geometry" />
        </mxCell>
        <mxCell id="J3RViSZRy1qu6EPypgzf-5" value="Polinomio&lt;div&gt;&lt;br&gt;&lt;/div&gt;" style="swimlane;fontStyle=1;align=center;verticalAlign=top;childLayout=stackLayout;horizontal=1;startSize=26;horizontalStack=0;resizeParent=1;resizeParentMax=0;resizeLast=0;collapsible=1;marginBottom=0;whiteSpace=wrap;html=1;" vertex="1" parent="1">
          <mxGeometry x="315" y="-17" width="256" height="135" as="geometry" />
        </mxCell>
        <mxCell id="J3RViSZRy1qu6EPypgzf-6" value="&lt;div&gt;- termos : Termo[]&lt;/div&gt;- grauMax : int" style="text;strokeColor=none;fillColor=none;align=left;verticalAlign=top;spacingLeft=4;spacingRight=4;overflow=hidden;rotatable=0;points=[[0,0.5],[1,0.5]];portConstraint=eastwest;whiteSpace=wrap;html=1;" vertex="1" parent="J3RViSZRy1qu6EPypgzf-5">
          <mxGeometry y="26" width="256" height="46" as="geometry" />
        </mxCell>
        <mxCell id="J3RViSZRy1qu6EPypgzf-7" value="" style="line;strokeWidth=1;fillColor=none;align=left;verticalAlign=middle;spacingTop=-1;spacingLeft=3;spacingRight=3;rotatable=0;labelPosition=right;points=[];portConstraint=eastwest;strokeColor=inherit;" vertex="1" parent="J3RViSZRy1qu6EPypgzf-5">
          <mxGeometry y="72" width="256" height="8" as="geometry" />
        </mxCell>
        <mxCell id="J3RViSZRy1qu6EPypgzf-8" value="+&amp;nbsp;AddTermo(int coeficiente, int grau) : void&lt;div&gt;+ calcularTotal(int x) : void&lt;/div&gt;&lt;div&gt;+ mostrar() : void&lt;/div&gt;" style="text;strokeColor=none;fillColor=none;align=left;verticalAlign=top;spacingLeft=4;spacingRight=4;overflow=hidden;rotatable=0;points=[[0,0.5],[1,0.5]];portConstraint=eastwest;whiteSpace=wrap;html=1;" vertex="1" parent="J3RViSZRy1qu6EPypgzf-5">
          <mxGeometry y="80" width="256" height="55" as="geometry" />
        </mxCell>
        <mxCell id="J3RViSZRy1qu6EPypgzf-9" value="1..*" style="endArrow=open;html=1;endSize=12;startArrow=diamondThin;startSize=14;startFill=0;edgeStyle=orthogonalEdgeStyle;align=left;verticalAlign=bottom;rounded=0;fontSize=12;curved=1;entryX=-0.012;entryY=0.652;entryDx=0;entryDy=0;entryPerimeter=0;" edge="1" parent="1" target="J3RViSZRy1qu6EPypgzf-6">
          <mxGeometry x="-1" y="3" relative="1" as="geometry">
            <mxPoint x="112" y="39" as="sourcePoint" />
            <mxPoint x="272" y="36" as="targetPoint" />
          </mxGeometry>
        </mxCell>
      </root>
    </mxGraphModel>
  </diagram>
</mxfile>
